<?xml version="1.0" encoding="iso-8859-1"?>
<!-- Generator: Adobe Illustrator 17.1.0, SVG Export Plug-In . SVG Version: 6.00 Build 0)  -->
<!DOCTYPE svg PUBLIC "-//W3C//DTD SVG 1.1//EN" "http://www.w3.org/Graphics/SVG/1.1/DTD/svg11.dtd">
<svg version="1.1" id="Capa_1" xmlns="http://www.w3.org/2000/svg" xmlns:xlink="http://www.w3.org/1999/xlink" x="0px" y="0px"
	 viewBox="0 0 300 300" style="enable-background:new 0 0 300 300;" xml:space="preserve">
<path d="M294.329,282.365c-6.428,5.225-15.875,4.311-21.102-2.117l-0.085,0.013c-2.18-2.653-4.878-3.911-7.553-3.911
	c-0.003,0-0.005,0-0.007,0c-2.681,0-5.384,1.268-7.612,3.991c-0.033,0.04-0.065-0.155-0.1-0.115
	c-7.905,9.603-19.094,15.113-30.717,15.124c-0.011,0-0.023,0-0.034,0c-11.648,0.001-22.866-5.466-30.783-15.102l-0.109-0.074
	c-1.938-2.359-4.24-3.678-6.571-4.006c-0.251-0.026-0.502,0.183-0.753,0.183c-0.003,0-0.004,0-0.007,0
	c-2.681,0-5.384,1.268-7.612,3.991c-0.031,0.038-0.063-0.159-0.095-0.121c-7.905,9.606-19.097,15.12-30.723,15.13
	c-0.011,0-0.022,0-0.032,0c-11.649,0.001-22.867-5.407-30.783-15.045l-0.08,0.021c-2.232-2.719-4.932-3.976-7.606-3.976
	c-0.003,0-0.004,0-0.007,0c-2.681,0-5.384,1.268-7.612,3.991c-7.927,9.686-19.153,15-30.817,15.009c-0.011,0-0.021,0-0.032,0
	c-11.649,0-22.867-5.402-30.783-15.039l-0.109-0.009c-2.221-2.704-4.92-3.952-7.595-3.952c-0.001,0-0.002,0-0.003,0
	c-2.678,0-5.379,1.314-7.606,4.031c-5.254,6.406-14.704,7.156-21.11,1.905c-6.406-5.253-7.341-14.581-2.089-20.988
	c7.913-9.65,19.137-14.948,30.793-14.948c0.005,0,0.011,0,0.016,0c11.649,0,22.868,5.281,30.783,14.917l0.109-0.114
	c2.22,2.704,4.919,4.196,7.594,4.196c0.003,0,0.004,0,0.007,0c2.681-0.002,5.384-1.268,7.612-3.991
	c7.927-9.686,19.153-15.009,30.817-15.009c0.011,0,0.021,0,0.032,0c11.649,0,22.867,5.29,30.783,14.927l0.08-0.138
	c2.232,2.719,4.932,4.211,7.606,4.211c0.002,0,0.004,0,0.007,0c2.206-0.001,4.423-0.911,6.383-2.789
	c0.307-0.474,0.636-0.816,1.002-1.264c7.913-9.65,19.137-14.948,30.792-14.948c0.006,0,0.012,0,0.017,0
	c0.805,0,1.607-0.213,2.407-0.161c10.875,0.631,21.214,5.807,28.644,14.853l0.133,0.162c0.32,0.394,0.615,0.799,0.889,1.214
	c1.965,1.892,4.195,2.932,6.413,2.932c0.002,0,0.005,0,0.007,0c2.68-0.002,5.383-1.385,7.61-4.107
	c0.032-0.04,0.065,0.038,0.098-0.001c7.906-9.604,19.098-14.892,30.722-14.892c0.011,0,0.022,0,0.032,0
	c11.649,0,22.867,5.29,30.783,14.927l0.133-0.073C301.73,267.632,300.757,277.138,294.329,282.365z M76,101.559v22.792h148v-22.792
	c24-9.15,39.966-23.334,39.966-42.308c0-35.846-57.166-54.601-113.817-54.601S36.275,23.405,36.275,59.25
	C36.275,78.225,52,92.409,76,101.559z M285.608,166.35H224v-27H76v27H15.059C6.774,166.35,0,173.376,0,181.661v31.115
	c0,8.284,6.774,14.574,15.059,14.574h270.55c8.284,0,14.392-6.29,14.392-14.574v-31.115C300,173.376,293.893,166.35,285.608,166.35z
	"/>
<g>
</g>
<g>
</g>
<g>
</g>
<g>
</g>
<g>
</g>
<g>
</g>
<g>
</g>
<g>
</g>
<g>
</g>
<g>
</g>
<g>
</g>
<g>
</g>
<g>
</g>
<g>
</g>
<g>
</g>
</svg>
